<svg width="29" height="28" viewBox="0 0 29 28" fill="none" xmlns="http://www.w3.org/2000/svg">
<path d="M25.6093 7.875V20.125C25.6093 20.8212 25.3311 21.4889 24.8359 21.9812C24.3407 22.4734 23.669 22.75 22.9687 22.75H5.36451C4.66417 22.75 3.99251 22.4734 3.4973 21.9812C3.00209 21.4889 2.72388 20.8212 2.72388 20.125V7.875M25.6093 7.875C25.6093 7.17881 25.3311 6.51113 24.8359 6.01884C24.3407 5.52656 23.669 5.25 22.9687 5.25H5.36451C4.66417 5.25 3.99251 5.52656 3.4973 6.01884C3.00209 6.51113 2.72388 7.17881 2.72388 7.875M25.6093 7.875V8.1585C25.6094 8.60667 25.494 9.04739 25.2742 9.43868C25.0544 9.82997 24.7374 10.1588 24.3536 10.3938L15.5515 15.778C15.1351 16.033 14.6556 16.168 14.1666 16.168C13.6776 16.168 13.1981 16.033 12.7817 15.778L3.97964 10.395C3.59578 10.16 3.27884 9.83113 3.05902 9.43985C2.83921 9.04856 2.72383 8.60784 2.72388 8.15967V7.875" stroke="white" stroke-width="1.5" stroke-linecap="round" stroke-linejoin="round"/>
</svg>
