<svg width="26" height="20" viewBox="0 0 26 20" fill="none" xmlns="http://www.w3.org/2000/svg">
<path d="M24.6093 3.875V16.125C24.6093 16.8212 24.3311 17.4889 23.8359 17.9812C23.3407 18.4734 22.669 18.75 21.9687 18.75H4.36451C3.66417 18.75 2.99251 18.4734 2.4973 17.9812C2.00209 17.4889 1.72388 16.8212 1.72388 16.125V3.875M24.6093 3.875C24.6093 3.17881 24.3311 2.51113 23.8359 2.01884C23.3407 1.52656 22.669 1.25 21.9687 1.25H4.36451C3.66417 1.25 2.99251 1.52656 2.4973 2.01884C2.00209 2.51113 1.72388 3.17881 1.72388 3.875M24.6093 3.875V4.1585C24.6094 4.60667 24.494 5.04739 24.2742 5.43868C24.0544 5.82997 23.7374 6.15879 23.3536 6.39383L14.5515 11.778C14.1351 12.033 13.6556 12.168 13.1666 12.168C12.6776 12.168 12.1981 12.033 11.7817 11.778L2.97964 6.395C2.59578 6.15996 2.27884 5.83113 2.05902 5.43985C1.83921 5.04856 1.72383 4.60784 1.72388 4.15967V3.875" stroke="white" stroke-width="1.5" stroke-linecap="round" stroke-linejoin="round"/>
</svg>
