<svg width="28" height="28" viewBox="0 0 28 28" fill="none" xmlns="http://www.w3.org/2000/svg">
<path d="M3.23047 7.875C3.23047 17.5397 10.879 25.375 20.3132 25.375H22.8756C23.5552 25.375 24.207 25.0984 24.6875 24.6062C25.1681 24.1139 25.4381 23.4462 25.4381 22.75V21.1493C25.4381 20.5473 25.0383 20.0223 24.4678 19.8765L19.4306 18.5862C18.9295 18.4578 18.4034 18.6503 18.0947 19.0727L16.9901 20.5812C16.6689 21.0198 16.1143 21.2135 15.6121 21.0245C13.7476 20.3223 12.0545 19.2134 10.6498 17.7744C9.24521 16.3355 8.16269 14.601 7.47724 12.691C7.29275 12.1765 7.4818 11.6083 7.91001 11.2793L9.38254 10.1477C9.79594 9.8315 9.98271 9.29133 9.85744 8.77917L8.59787 3.619C8.52856 3.33514 8.36864 3.08315 8.14353 2.90306C7.91842 2.72297 7.64101 2.6251 7.35539 2.625H5.79288C5.11329 2.625 4.46153 2.90156 3.98098 3.39384C3.50044 3.88613 3.23047 4.55381 3.23047 5.25V7.875Z" stroke="white" stroke-width="1.5" stroke-linecap="round" stroke-linejoin="round"/>
</svg>
